<svg width="1602" height="1602" viewBox="0 0 1602 1602" fill="none" xmlns="http://www.w3.org/2000/svg">
<circle cx="801" cy="801" r="801" fill="white"/>
<circle cx="1007.01" cy="467.991" r="275.487" transform="rotate(-0.313614 1007.01 467.991)" fill="#C87072"/>
<circle cx="800.907" cy="801.153" r="99.6443" transform="rotate(11.6995 800.907 801.153)" fill="#E79C00"/>
<mask id="path-4-inside-1" fill="white">
<path d="M757.665 353.625C757.665 356.488 756.616 359.063 754.517 361.353C752.609 363.643 750.129 364.787 747.076 364.787C744.214 364.787 741.733 363.833 739.635 361.925C737.536 360.017 736.295 357.442 735.914 354.198C735.723 353.435 735.246 349.809 734.483 343.322C733.91 336.835 732.002 328.917 728.759 319.567C725.706 310.027 720.936 299.915 714.449 289.23C707.961 278.354 698.994 268.337 687.546 259.179C676.288 250.02 661.978 242.388 644.615 236.282C627.252 230.177 606.169 227.124 581.364 227.124C559.422 227.124 537.289 230.463 514.965 237.141C492.832 243.628 471.558 252.882 451.142 264.903C430.727 276.732 411.646 290.947 393.902 307.547C376.157 323.956 360.702 342.082 347.537 361.925C334.562 381.769 324.259 402.948 316.627 425.462C309.186 447.977 305.465 471.159 305.465 495.01C305.465 516.57 308.423 535.078 314.337 550.533C320.252 565.797 328.457 578.294 338.951 588.025C349.445 597.756 361.752 604.911 375.871 609.491C390.181 613.879 405.541 616.073 421.95 616.073C450.379 616.073 476.901 611.208 501.514 601.477C526.318 591.555 549.214 578.294 570.203 561.695C591.382 544.904 610.653 525.442 628.016 503.309C645.378 480.986 660.929 457.517 674.667 432.904C676.193 409.626 678.864 391.881 682.68 379.67C686.687 367.268 692.602 361.067 700.425 361.067C704.813 361.067 708.438 362.879 711.3 366.505C714.353 370.13 715.88 374.804 715.88 380.529C715.88 386.825 714.258 394.839 711.014 404.57C707.771 414.3 702.81 425.558 696.132 438.341C695.559 447.309 695.273 456.945 695.273 467.248C695.273 482.321 695.846 498.826 696.99 516.761C698.326 534.696 700.329 553.776 703.001 574.001C711.014 569.995 717.215 567.133 721.604 565.415C726.183 563.507 729.522 562.267 731.621 561.695C733.72 560.932 735.055 560.645 735.628 560.836C736.2 560.836 736.677 560.836 737.059 560.836C739.921 560.836 742.401 561.886 744.5 563.984C746.79 565.892 747.934 568.468 747.934 571.712C747.934 574.001 747.267 576.1 745.931 578.008C744.595 579.725 742.783 580.966 740.493 581.729C740.112 581.92 736.772 583.255 730.476 585.736C724.37 588.025 716.166 591.746 705.863 596.898C706.817 607.201 707.58 617.6 708.152 628.094C708.725 638.588 709.011 649.177 709.011 659.862C709.011 685.048 707.198 709.089 703.573 731.985C699.948 754.881 693.938 775.011 685.542 792.374C677.338 809.737 666.367 823.475 652.629 833.587C638.891 843.89 622.005 849.042 601.971 849.042C592.049 849.042 582.891 847.325 574.496 843.89C566.1 840.456 558.85 835.686 552.744 829.58C546.639 823.475 541.869 816.129 538.434 807.543C535 799.147 533.282 789.894 533.282 779.781C533.282 765.471 535.667 751.352 540.438 737.423C545.398 723.495 551.886 710.043 559.899 697.069C568.104 684.094 577.453 671.787 587.947 660.148C598.441 648.7 609.222 638.111 620.288 628.38C631.355 618.649 642.23 610.063 652.915 602.622C663.791 595.18 673.713 589.17 682.68 584.591C680.2 565.511 678.196 546.812 676.67 528.495C675.144 509.987 674.19 492.052 673.808 474.689C657.208 501.211 638.891 524.584 618.857 544.809C599.014 565.034 578.216 582.015 556.465 595.753C534.713 609.491 512.294 619.889 489.207 626.949C466.311 633.818 443.51 637.252 420.805 637.252C400.198 637.252 381.5 634.199 364.709 628.094C347.919 621.797 333.513 612.639 321.493 600.618C309.472 588.598 300.218 573.715 293.731 555.971C287.244 538.226 284 517.81 284 494.723C284 470.301 287.816 446.26 295.448 422.6C303.08 398.75 313.67 376.14 327.217 354.77C340.764 333.21 356.791 313.366 375.299 295.24C393.997 277.114 414.318 261.468 436.26 248.303C458.393 234.947 481.671 224.548 506.093 217.107C530.707 209.475 555.797 205.659 581.364 205.659C605.978 205.659 627.348 208.521 645.474 214.245C663.6 219.778 678.96 226.933 691.552 235.71C704.336 244.296 714.639 253.741 722.462 264.044C730.476 274.157 736.772 283.792 741.352 292.951C745.168 300.773 748.125 308.31 750.224 315.561C752.514 322.811 754.135 329.203 755.089 334.736C756.234 340.269 756.902 344.753 757.093 348.188C757.474 351.622 757.665 353.435 757.665 353.625ZM685.256 608.346C675.716 613.688 665.794 620.08 655.491 627.521C645.378 634.772 635.457 642.785 625.726 651.562C616.186 660.339 607.123 669.784 598.537 679.896C589.951 690.009 582.414 700.503 575.927 711.379C569.439 722.254 564.288 733.416 560.472 744.864C556.846 756.503 555.034 768.142 555.034 779.781C555.034 787.032 556.179 793.519 558.468 799.243C560.758 805.158 564.002 810.119 568.199 814.125C572.397 818.323 577.358 821.567 583.082 823.856C588.806 826.146 595.102 827.291 601.971 827.291C628.874 827.291 649.862 812.981 664.936 784.36C680.009 755.931 687.546 714.336 687.546 659.576C687.546 651.372 687.355 642.976 686.973 634.39C686.592 625.995 686.019 617.313 685.256 608.346Z"/>
<path d="M826.926 403.997C826.926 411.248 824.35 417.449 819.199 422.6C814.238 427.561 808.132 430.042 800.882 430.042C793.631 430.042 787.43 427.561 782.279 422.6C777.318 417.449 774.837 411.248 774.837 403.997C774.837 400.372 775.505 397.033 776.841 393.98C778.176 390.736 779.989 387.97 782.279 385.68C784.759 383.2 787.526 381.292 790.579 379.956C793.822 378.62 797.257 377.953 800.882 377.953C804.507 377.953 807.846 378.62 810.899 379.956C814.143 381.292 816.909 383.2 819.199 385.68C821.679 387.97 823.587 390.736 824.923 393.98C826.258 397.033 826.926 400.372 826.926 403.997ZM780.561 571.712C780.561 544.236 782.279 516.856 785.713 489.572C786.095 486.9 787.24 484.611 789.148 482.703C791.246 480.604 793.918 479.555 797.161 479.555C800.023 479.555 802.408 480.699 804.316 482.989C806.224 485.088 807.178 487.568 807.178 490.43C807.178 491.575 806.892 495.01 806.32 500.734C805.938 506.458 805.366 513.327 804.602 521.34C804.03 529.163 803.458 537.558 802.885 546.526C802.504 555.303 802.313 563.412 802.313 570.853C802.313 580.966 803.267 589.17 805.175 595.467C807.274 601.572 809.85 606.342 812.902 609.777C816.146 613.211 819.485 615.501 822.919 616.646C826.545 617.79 829.979 618.363 833.223 618.363C838.565 618.363 844.098 616.455 849.823 612.639C855.547 608.823 861.366 603.48 867.281 596.611C873.387 589.743 879.492 581.538 885.598 571.998C891.703 562.267 897.714 551.487 903.629 539.657C904.583 537.749 905.918 536.318 907.635 535.364C909.353 534.219 911.261 533.647 913.359 533.647C916.412 533.647 918.893 534.792 920.801 537.081C922.9 539.371 923.949 541.851 923.949 544.523C923.949 546.431 923.567 548.052 922.804 549.388C920.515 553.776 917.653 559.119 914.218 565.415C910.784 571.712 906.872 578.199 902.484 584.877C898.095 591.555 893.23 598.233 887.887 604.911C882.736 611.399 877.203 617.313 871.288 622.656C865.373 627.808 859.172 632.005 852.685 635.249C846.197 638.492 839.615 640.114 832.937 640.114C824.35 640.114 816.814 638.302 810.327 634.676C803.839 631.051 798.306 626.186 793.727 620.08C789.338 613.974 785.999 606.819 783.71 598.615C781.611 590.22 780.561 581.252 780.561 571.712ZM810.899 403.997C810.899 401.326 809.85 399.036 807.751 397.128C805.843 395.029 803.553 393.98 800.882 393.98C798.211 393.98 795.921 395.029 794.013 397.128C792.105 399.036 791.151 401.326 791.151 403.997C791.151 406.668 792.105 408.958 794.013 410.866C795.921 412.774 798.211 413.728 800.882 413.728C803.553 413.728 805.843 412.774 807.751 410.866C809.85 408.958 810.899 406.668 810.899 403.997Z"/>
<path d="M1066.19 549.388C1064.09 553.776 1061.42 559.024 1058.18 565.129C1055.13 571.044 1051.6 577.245 1047.59 583.732C1043.58 590.22 1039.1 596.707 1034.14 603.194C1029.18 609.491 1023.74 615.215 1017.82 620.366C1012.1 625.327 1005.9 629.334 999.22 632.387C992.733 635.63 985.769 637.252 978.327 637.252C966.879 637.252 957.053 633.722 948.849 626.663C940.644 619.603 933.68 610.349 927.956 598.901C922.232 587.453 917.557 574.478 913.932 559.978C910.497 545.286 907.826 530.403 905.918 515.33C904.01 500.066 902.675 485.279 901.911 470.969C901.339 456.658 901.053 443.97 901.053 432.904C901.053 416.876 901.53 400.276 902.484 383.104C903.629 365.932 905.346 349.142 907.635 332.733C909.925 316.324 912.787 300.773 916.221 286.082C919.847 271.39 924.044 258.511 928.814 247.444C933.775 236.378 939.404 227.601 945.7 221.114C951.997 214.626 959.152 211.383 967.166 211.383C973.462 211.383 979.091 212.909 984.052 215.962C989.203 218.824 993.496 223.594 996.931 230.272C1000.37 236.95 1003.04 245.632 1004.94 256.317C1006.85 267.002 1007.81 280.071 1007.81 295.526C1007.81 314.607 1005.8 334.355 1001.8 354.77C997.789 374.995 992.351 395.411 985.483 416.018C978.614 436.624 970.505 457.231 961.155 477.837C951.806 498.253 941.789 518.192 931.104 537.654C935.874 561.886 942.266 580.966 950.28 594.894C958.293 608.632 967.929 615.501 979.186 615.501C986.818 615.501 994.164 612.543 1001.22 606.629C1008.28 600.523 1014.77 593.368 1020.69 585.163C1026.6 576.959 1031.75 568.659 1036.14 560.264C1040.72 551.678 1044.25 544.809 1046.73 539.657C1047.68 537.749 1049.02 536.318 1050.74 535.364C1052.45 534.219 1054.36 533.647 1056.46 533.647C1059.7 533.647 1062.28 534.792 1064.19 537.081C1066.29 539.371 1067.34 541.947 1067.34 544.809C1067.34 545.954 1066.95 547.48 1066.19 549.388ZM922.804 434.335C922.804 446.546 923.09 458.28 923.663 469.538C924.235 480.795 924.998 491.575 925.952 501.878C933.966 486.423 941.598 470.015 948.849 452.652C956.099 435.098 962.491 417.449 968.024 399.704C973.557 381.769 977.946 364.024 981.19 346.47C984.624 328.726 986.341 311.84 986.341 295.813C986.341 273.298 984.529 257.175 980.903 247.444C977.278 237.713 972.413 232.848 966.307 232.848C962.3 232.848 958.389 235.615 954.573 241.148C950.947 246.681 947.513 254.218 944.269 263.758C941.026 273.298 938.068 284.555 935.397 297.53C932.726 310.504 930.436 324.433 928.528 339.315C926.811 354.198 925.38 369.748 924.235 385.966C923.281 402.185 922.804 418.307 922.804 434.335Z"/>
<path d="M1093.67 403.997C1093.67 411.248 1091.09 417.449 1085.94 422.6C1080.98 427.561 1074.87 430.042 1067.62 430.042C1060.37 430.042 1054.17 427.561 1049.02 422.6C1044.06 417.449 1041.58 411.248 1041.58 403.997C1041.58 400.372 1042.25 397.033 1043.58 393.98C1044.92 390.736 1046.73 387.97 1049.02 385.68C1051.5 383.2 1054.27 381.292 1057.32 379.956C1060.56 378.62 1064 377.953 1067.62 377.953C1071.25 377.953 1074.59 378.62 1077.64 379.956C1080.88 381.292 1083.65 383.2 1085.94 385.68C1088.42 387.97 1090.33 390.736 1091.66 393.98C1093 397.033 1093.67 400.372 1093.67 403.997ZM1047.3 571.712C1047.3 544.236 1049.02 516.856 1052.45 489.572C1052.84 486.9 1053.98 484.611 1055.89 482.703C1057.99 480.604 1060.66 479.555 1063.9 479.555C1066.76 479.555 1069.15 480.699 1071.06 482.989C1072.97 485.088 1073.92 487.568 1073.92 490.43C1073.92 491.575 1073.63 495.01 1073.06 500.734C1072.68 506.458 1072.11 513.327 1071.34 521.34C1070.77 529.163 1070.2 537.558 1069.63 546.526C1069.24 555.303 1069.05 563.412 1069.05 570.853C1069.05 580.966 1070.01 589.17 1071.92 595.467C1074.01 601.572 1076.59 606.342 1079.64 609.777C1082.89 613.211 1086.23 615.501 1089.66 616.646C1093.29 617.79 1096.72 618.363 1099.96 618.363C1105.31 618.363 1110.84 616.455 1116.56 612.639C1122.29 608.823 1128.11 603.48 1134.02 596.611C1140.13 589.743 1146.23 581.538 1152.34 571.998C1158.44 562.267 1164.45 551.487 1170.37 539.657C1171.32 537.749 1172.66 536.318 1174.38 535.364C1176.09 534.219 1178 533.647 1180.1 533.647C1183.15 533.647 1185.63 534.792 1187.54 537.081C1189.64 539.371 1190.69 541.851 1190.69 544.523C1190.69 546.431 1190.31 548.052 1189.54 549.388C1187.26 553.776 1184.39 559.119 1180.96 565.415C1177.52 571.712 1173.61 578.199 1169.22 584.877C1164.84 591.555 1159.97 598.233 1154.63 604.911C1149.48 611.399 1143.94 617.313 1138.03 622.656C1132.11 627.808 1125.91 632.005 1119.43 635.249C1112.94 638.492 1106.36 640.114 1099.68 640.114C1091.09 640.114 1083.55 638.302 1077.07 634.676C1070.58 631.051 1065.05 626.186 1060.47 620.08C1056.08 613.974 1052.74 606.819 1050.45 598.615C1048.35 590.22 1047.3 581.252 1047.3 571.712ZM1077.64 403.997C1077.64 401.326 1076.59 399.036 1074.49 397.128C1072.58 395.029 1070.29 393.98 1067.62 393.98C1064.95 393.98 1062.66 395.029 1060.75 397.128C1058.85 399.036 1057.89 401.326 1057.89 403.997C1057.89 406.668 1058.85 408.958 1060.75 410.866C1062.66 412.774 1064.95 413.728 1067.62 413.728C1070.29 413.728 1072.58 412.774 1074.49 410.866C1076.59 408.958 1077.64 406.668 1077.64 403.997Z"/>
</mask>
<path d="M757.665 353.625C757.665 356.488 756.616 359.063 754.517 361.353C752.609 363.643 750.129 364.787 747.076 364.787C744.214 364.787 741.733 363.833 739.635 361.925C737.536 360.017 736.295 357.442 735.914 354.198C735.723 353.435 735.246 349.809 734.483 343.322C733.91 336.835 732.002 328.917 728.759 319.567C725.706 310.027 720.936 299.915 714.449 289.23C707.961 278.354 698.994 268.337 687.546 259.179C676.288 250.02 661.978 242.388 644.615 236.282C627.252 230.177 606.169 227.124 581.364 227.124C559.422 227.124 537.289 230.463 514.965 237.141C492.832 243.628 471.558 252.882 451.142 264.903C430.727 276.732 411.646 290.947 393.902 307.547C376.157 323.956 360.702 342.082 347.537 361.925C334.562 381.769 324.259 402.948 316.627 425.462C309.186 447.977 305.465 471.159 305.465 495.01C305.465 516.57 308.423 535.078 314.337 550.533C320.252 565.797 328.457 578.294 338.951 588.025C349.445 597.756 361.752 604.911 375.871 609.491C390.181 613.879 405.541 616.073 421.95 616.073C450.379 616.073 476.901 611.208 501.514 601.477C526.318 591.555 549.214 578.294 570.203 561.695C591.382 544.904 610.653 525.442 628.016 503.309C645.378 480.986 660.929 457.517 674.667 432.904C676.193 409.626 678.864 391.881 682.68 379.67C686.687 367.268 692.602 361.067 700.425 361.067C704.813 361.067 708.438 362.879 711.3 366.505C714.353 370.13 715.88 374.804 715.88 380.529C715.88 386.825 714.258 394.839 711.014 404.57C707.771 414.3 702.81 425.558 696.132 438.341C695.559 447.309 695.273 456.945 695.273 467.248C695.273 482.321 695.846 498.826 696.99 516.761C698.326 534.696 700.329 553.776 703.001 574.001C711.014 569.995 717.215 567.133 721.604 565.415C726.183 563.507 729.522 562.267 731.621 561.695C733.72 560.932 735.055 560.645 735.628 560.836C736.2 560.836 736.677 560.836 737.059 560.836C739.921 560.836 742.401 561.886 744.5 563.984C746.79 565.892 747.934 568.468 747.934 571.712C747.934 574.001 747.267 576.1 745.931 578.008C744.595 579.725 742.783 580.966 740.493 581.729C740.112 581.92 736.772 583.255 730.476 585.736C724.37 588.025 716.166 591.746 705.863 596.898C706.817 607.201 707.58 617.6 708.152 628.094C708.725 638.588 709.011 649.177 709.011 659.862C709.011 685.048 707.198 709.089 703.573 731.985C699.948 754.881 693.938 775.011 685.542 792.374C677.338 809.737 666.367 823.475 652.629 833.587C638.891 843.89 622.005 849.042 601.971 849.042C592.049 849.042 582.891 847.325 574.496 843.89C566.1 840.456 558.85 835.686 552.744 829.58C546.639 823.475 541.869 816.129 538.434 807.543C535 799.147 533.282 789.894 533.282 779.781C533.282 765.471 535.667 751.352 540.438 737.423C545.398 723.495 551.886 710.043 559.899 697.069C568.104 684.094 577.453 671.787 587.947 660.148C598.441 648.7 609.222 638.111 620.288 628.38C631.355 618.649 642.23 610.063 652.915 602.622C663.791 595.18 673.713 589.17 682.68 584.591C680.2 565.511 678.196 546.812 676.67 528.495C675.144 509.987 674.19 492.052 673.808 474.689C657.208 501.211 638.891 524.584 618.857 544.809C599.014 565.034 578.216 582.015 556.465 595.753C534.713 609.491 512.294 619.889 489.207 626.949C466.311 633.818 443.51 637.252 420.805 637.252C400.198 637.252 381.5 634.199 364.709 628.094C347.919 621.797 333.513 612.639 321.493 600.618C309.472 588.598 300.218 573.715 293.731 555.971C287.244 538.226 284 517.81 284 494.723C284 470.301 287.816 446.26 295.448 422.6C303.08 398.75 313.67 376.14 327.217 354.77C340.764 333.21 356.791 313.366 375.299 295.24C393.997 277.114 414.318 261.468 436.26 248.303C458.393 234.947 481.671 224.548 506.093 217.107C530.707 209.475 555.797 205.659 581.364 205.659C605.978 205.659 627.348 208.521 645.474 214.245C663.6 219.778 678.96 226.933 691.552 235.71C704.336 244.296 714.639 253.741 722.462 264.044C730.476 274.157 736.772 283.792 741.352 292.951C745.168 300.773 748.125 308.31 750.224 315.561C752.514 322.811 754.135 329.203 755.089 334.736C756.234 340.269 756.902 344.753 757.093 348.188C757.474 351.622 757.665 353.435 757.665 353.625ZM685.256 608.346C675.716 613.688 665.794 620.08 655.491 627.521C645.378 634.772 635.457 642.785 625.726 651.562C616.186 660.339 607.123 669.784 598.537 679.896C589.951 690.009 582.414 700.503 575.927 711.379C569.439 722.254 564.288 733.416 560.472 744.864C556.846 756.503 555.034 768.142 555.034 779.781C555.034 787.032 556.179 793.519 558.468 799.243C560.758 805.158 564.002 810.119 568.199 814.125C572.397 818.323 577.358 821.567 583.082 823.856C588.806 826.146 595.102 827.291 601.971 827.291C628.874 827.291 649.862 812.981 664.936 784.36C680.009 755.931 687.546 714.336 687.546 659.576C687.546 651.372 687.355 642.976 686.973 634.39C686.592 625.995 686.019 617.313 685.256 608.346Z" fill="#6D2128"/>
<path d="M826.926 403.997C826.926 411.248 824.35 417.449 819.199 422.6C814.238 427.561 808.132 430.042 800.882 430.042C793.631 430.042 787.43 427.561 782.279 422.6C777.318 417.449 774.837 411.248 774.837 403.997C774.837 400.372 775.505 397.033 776.841 393.98C778.176 390.736 779.989 387.97 782.279 385.68C784.759 383.2 787.526 381.292 790.579 379.956C793.822 378.62 797.257 377.953 800.882 377.953C804.507 377.953 807.846 378.62 810.899 379.956C814.143 381.292 816.909 383.2 819.199 385.68C821.679 387.97 823.587 390.736 824.923 393.98C826.258 397.033 826.926 400.372 826.926 403.997ZM780.561 571.712C780.561 544.236 782.279 516.856 785.713 489.572C786.095 486.9 787.24 484.611 789.148 482.703C791.246 480.604 793.918 479.555 797.161 479.555C800.023 479.555 802.408 480.699 804.316 482.989C806.224 485.088 807.178 487.568 807.178 490.43C807.178 491.575 806.892 495.01 806.32 500.734C805.938 506.458 805.366 513.327 804.602 521.34C804.03 529.163 803.458 537.558 802.885 546.526C802.504 555.303 802.313 563.412 802.313 570.853C802.313 580.966 803.267 589.17 805.175 595.467C807.274 601.572 809.85 606.342 812.902 609.777C816.146 613.211 819.485 615.501 822.919 616.646C826.545 617.79 829.979 618.363 833.223 618.363C838.565 618.363 844.098 616.455 849.823 612.639C855.547 608.823 861.366 603.48 867.281 596.611C873.387 589.743 879.492 581.538 885.598 571.998C891.703 562.267 897.714 551.487 903.629 539.657C904.583 537.749 905.918 536.318 907.635 535.364C909.353 534.219 911.261 533.647 913.359 533.647C916.412 533.647 918.893 534.792 920.801 537.081C922.9 539.371 923.949 541.851 923.949 544.523C923.949 546.431 923.567 548.052 922.804 549.388C920.515 553.776 917.653 559.119 914.218 565.415C910.784 571.712 906.872 578.199 902.484 584.877C898.095 591.555 893.23 598.233 887.887 604.911C882.736 611.399 877.203 617.313 871.288 622.656C865.373 627.808 859.172 632.005 852.685 635.249C846.197 638.492 839.615 640.114 832.937 640.114C824.35 640.114 816.814 638.302 810.327 634.676C803.839 631.051 798.306 626.186 793.727 620.08C789.338 613.974 785.999 606.819 783.71 598.615C781.611 590.22 780.561 581.252 780.561 571.712ZM810.899 403.997C810.899 401.326 809.85 399.036 807.751 397.128C805.843 395.029 803.553 393.98 800.882 393.98C798.211 393.98 795.921 395.029 794.013 397.128C792.105 399.036 791.151 401.326 791.151 403.997C791.151 406.668 792.105 408.958 794.013 410.866C795.921 412.774 798.211 413.728 800.882 413.728C803.553 413.728 805.843 412.774 807.751 410.866C809.85 408.958 810.899 406.668 810.899 403.997Z" fill="#6D2128"/>
<path d="M1066.19 549.388C1064.09 553.776 1061.42 559.024 1058.18 565.129C1055.13 571.044 1051.6 577.245 1047.59 583.732C1043.58 590.22 1039.1 596.707 1034.14 603.194C1029.18 609.491 1023.74 615.215 1017.82 620.366C1012.1 625.327 1005.9 629.334 999.22 632.387C992.733 635.63 985.769 637.252 978.327 637.252C966.879 637.252 957.053 633.722 948.849 626.663C940.644 619.603 933.68 610.349 927.956 598.901C922.232 587.453 917.557 574.478 913.932 559.978C910.497 545.286 907.826 530.403 905.918 515.33C904.01 500.066 902.675 485.279 901.911 470.969C901.339 456.658 901.053 443.97 901.053 432.904C901.053 416.876 901.53 400.276 902.484 383.104C903.629 365.932 905.346 349.142 907.635 332.733C909.925 316.324 912.787 300.773 916.221 286.082C919.847 271.39 924.044 258.511 928.814 247.444C933.775 236.378 939.404 227.601 945.7 221.114C951.997 214.626 959.152 211.383 967.166 211.383C973.462 211.383 979.091 212.909 984.052 215.962C989.203 218.824 993.496 223.594 996.931 230.272C1000.37 236.95 1003.04 245.632 1004.94 256.317C1006.85 267.002 1007.81 280.071 1007.81 295.526C1007.81 314.607 1005.8 334.355 1001.8 354.77C997.789 374.995 992.351 395.411 985.483 416.018C978.614 436.624 970.505 457.231 961.155 477.837C951.806 498.253 941.789 518.192 931.104 537.654C935.874 561.886 942.266 580.966 950.28 594.894C958.293 608.632 967.929 615.501 979.186 615.501C986.818 615.501 994.164 612.543 1001.22 606.629C1008.28 600.523 1014.77 593.368 1020.69 585.163C1026.6 576.959 1031.75 568.659 1036.14 560.264C1040.72 551.678 1044.25 544.809 1046.73 539.657C1047.68 537.749 1049.02 536.318 1050.74 535.364C1052.45 534.219 1054.36 533.647 1056.46 533.647C1059.7 533.647 1062.28 534.792 1064.19 537.081C1066.29 539.371 1067.34 541.947 1067.34 544.809C1067.34 545.954 1066.95 547.48 1066.19 549.388ZM922.804 434.335C922.804 446.546 923.09 458.28 923.663 469.538C924.235 480.795 924.998 491.575 925.952 501.878C933.966 486.423 941.598 470.015 948.849 452.652C956.099 435.098 962.491 417.449 968.024 399.704C973.557 381.769 977.946 364.024 981.19 346.47C984.624 328.726 986.341 311.84 986.341 295.813C986.341 273.298 984.529 257.175 980.903 247.444C977.278 237.713 972.413 232.848 966.307 232.848C962.3 232.848 958.389 235.615 954.573 241.148C950.947 246.681 947.513 254.218 944.269 263.758C941.026 273.298 938.068 284.555 935.397 297.53C932.726 310.504 930.436 324.433 928.528 339.315C926.811 354.198 925.38 369.748 924.235 385.966C923.281 402.185 922.804 418.307 922.804 434.335Z" fill="#6D2128"/>
<path d="M1093.67 403.997C1093.67 411.248 1091.09 417.449 1085.94 422.6C1080.98 427.561 1074.87 430.042 1067.62 430.042C1060.37 430.042 1054.17 427.561 1049.02 422.6C1044.06 417.449 1041.58 411.248 1041.58 403.997C1041.58 400.372 1042.25 397.033 1043.58 393.98C1044.92 390.736 1046.73 387.97 1049.02 385.68C1051.5 383.2 1054.27 381.292 1057.32 379.956C1060.56 378.62 1064 377.953 1067.62 377.953C1071.25 377.953 1074.59 378.62 1077.64 379.956C1080.88 381.292 1083.65 383.2 1085.94 385.68C1088.42 387.97 1090.33 390.736 1091.66 393.98C1093 397.033 1093.67 400.372 1093.67 403.997ZM1047.3 571.712C1047.3 544.236 1049.02 516.856 1052.45 489.572C1052.84 486.9 1053.98 484.611 1055.89 482.703C1057.99 480.604 1060.66 479.555 1063.9 479.555C1066.76 479.555 1069.15 480.699 1071.06 482.989C1072.97 485.088 1073.92 487.568 1073.92 490.43C1073.92 491.575 1073.63 495.01 1073.06 500.734C1072.68 506.458 1072.11 513.327 1071.34 521.34C1070.77 529.163 1070.2 537.558 1069.63 546.526C1069.24 555.303 1069.05 563.412 1069.05 570.853C1069.05 580.966 1070.01 589.17 1071.92 595.467C1074.01 601.572 1076.59 606.342 1079.64 609.777C1082.89 613.211 1086.23 615.501 1089.66 616.646C1093.29 617.79 1096.72 618.363 1099.96 618.363C1105.31 618.363 1110.84 616.455 1116.56 612.639C1122.29 608.823 1128.11 603.48 1134.02 596.611C1140.13 589.743 1146.23 581.538 1152.34 571.998C1158.44 562.267 1164.45 551.487 1170.37 539.657C1171.32 537.749 1172.66 536.318 1174.38 535.364C1176.09 534.219 1178 533.647 1180.1 533.647C1183.15 533.647 1185.63 534.792 1187.54 537.081C1189.64 539.371 1190.69 541.851 1190.69 544.523C1190.69 546.431 1190.31 548.052 1189.54 549.388C1187.26 553.776 1184.39 559.119 1180.96 565.415C1177.52 571.712 1173.61 578.199 1169.22 584.877C1164.84 591.555 1159.97 598.233 1154.63 604.911C1149.48 611.399 1143.94 617.313 1138.03 622.656C1132.11 627.808 1125.91 632.005 1119.43 635.249C1112.94 638.492 1106.36 640.114 1099.68 640.114C1091.09 640.114 1083.55 638.302 1077.07 634.676C1070.58 631.051 1065.05 626.186 1060.47 620.08C1056.08 613.974 1052.74 606.819 1050.45 598.615C1048.35 590.22 1047.3 581.252 1047.3 571.712ZM1077.64 403.997C1077.64 401.326 1076.59 399.036 1074.49 397.128C1072.58 395.029 1070.29 393.98 1067.62 393.98C1064.95 393.98 1062.66 395.029 1060.75 397.128C1058.85 399.036 1057.89 401.326 1057.89 403.997C1057.89 406.668 1058.85 408.958 1060.75 410.866C1062.66 412.774 1064.95 413.728 1067.62 413.728C1070.29 413.728 1072.58 412.774 1074.49 410.866C1076.59 408.958 1077.64 406.668 1077.64 403.997Z" fill="#6D2128"/>
<path d="M757.665 353.625C757.665 356.488 756.616 359.063 754.517 361.353C752.609 363.643 750.129 364.787 747.076 364.787C744.214 364.787 741.733 363.833 739.635 361.925C737.536 360.017 736.295 357.442 735.914 354.198C735.723 353.435 735.246 349.809 734.483 343.322C733.91 336.835 732.002 328.917 728.759 319.567C725.706 310.027 720.936 299.915 714.449 289.23C707.961 278.354 698.994 268.337 687.546 259.179C676.288 250.02 661.978 242.388 644.615 236.282C627.252 230.177 606.169 227.124 581.364 227.124C559.422 227.124 537.289 230.463 514.965 237.141C492.832 243.628 471.558 252.882 451.142 264.903C430.727 276.732 411.646 290.947 393.902 307.547C376.157 323.956 360.702 342.082 347.537 361.925C334.562 381.769 324.259 402.948 316.627 425.462C309.186 447.977 305.465 471.159 305.465 495.01C305.465 516.57 308.423 535.078 314.337 550.533C320.252 565.797 328.457 578.294 338.951 588.025C349.445 597.756 361.752 604.911 375.871 609.491C390.181 613.879 405.541 616.073 421.95 616.073C450.379 616.073 476.901 611.208 501.514 601.477C526.318 591.555 549.214 578.294 570.203 561.695C591.382 544.904 610.653 525.442 628.016 503.309C645.378 480.986 660.929 457.517 674.667 432.904C676.193 409.626 678.864 391.881 682.68 379.67C686.687 367.268 692.602 361.067 700.425 361.067C704.813 361.067 708.438 362.879 711.3 366.505C714.353 370.13 715.88 374.804 715.88 380.529C715.88 386.825 714.258 394.839 711.014 404.57C707.771 414.3 702.81 425.558 696.132 438.341C695.559 447.309 695.273 456.945 695.273 467.248C695.273 482.321 695.846 498.826 696.99 516.761C698.326 534.696 700.329 553.776 703.001 574.001C711.014 569.995 717.215 567.133 721.604 565.415C726.183 563.507 729.522 562.267 731.621 561.695C733.72 560.932 735.055 560.645 735.628 560.836C736.2 560.836 736.677 560.836 737.059 560.836C739.921 560.836 742.401 561.886 744.5 563.984C746.79 565.892 747.934 568.468 747.934 571.712C747.934 574.001 747.267 576.1 745.931 578.008C744.595 579.725 742.783 580.966 740.493 581.729C740.112 581.92 736.772 583.255 730.476 585.736C724.37 588.025 716.166 591.746 705.863 596.898C706.817 607.201 707.58 617.6 708.152 628.094C708.725 638.588 709.011 649.177 709.011 659.862C709.011 685.048 707.198 709.089 703.573 731.985C699.948 754.881 693.938 775.011 685.542 792.374C677.338 809.737 666.367 823.475 652.629 833.587C638.891 843.89 622.005 849.042 601.971 849.042C592.049 849.042 582.891 847.325 574.496 843.89C566.1 840.456 558.85 835.686 552.744 829.58C546.639 823.475 541.869 816.129 538.434 807.543C535 799.147 533.282 789.894 533.282 779.781C533.282 765.471 535.667 751.352 540.438 737.423C545.398 723.495 551.886 710.043 559.899 697.069C568.104 684.094 577.453 671.787 587.947 660.148C598.441 648.7 609.222 638.111 620.288 628.38C631.355 618.649 642.23 610.063 652.915 602.622C663.791 595.18 673.713 589.17 682.68 584.591C680.2 565.511 678.196 546.812 676.67 528.495C675.144 509.987 674.19 492.052 673.808 474.689C657.208 501.211 638.891 524.584 618.857 544.809C599.014 565.034 578.216 582.015 556.465 595.753C534.713 609.491 512.294 619.889 489.207 626.949C466.311 633.818 443.51 637.252 420.805 637.252C400.198 637.252 381.5 634.199 364.709 628.094C347.919 621.797 333.513 612.639 321.493 600.618C309.472 588.598 300.218 573.715 293.731 555.971C287.244 538.226 284 517.81 284 494.723C284 470.301 287.816 446.26 295.448 422.6C303.08 398.75 313.67 376.14 327.217 354.77C340.764 333.21 356.791 313.366 375.299 295.24C393.997 277.114 414.318 261.468 436.26 248.303C458.393 234.947 481.671 224.548 506.093 217.107C530.707 209.475 555.797 205.659 581.364 205.659C605.978 205.659 627.348 208.521 645.474 214.245C663.6 219.778 678.96 226.933 691.552 235.71C704.336 244.296 714.639 253.741 722.462 264.044C730.476 274.157 736.772 283.792 741.352 292.951C745.168 300.773 748.125 308.31 750.224 315.561C752.514 322.811 754.135 329.203 755.089 334.736C756.234 340.269 756.902 344.753 757.093 348.188C757.474 351.622 757.665 353.435 757.665 353.625ZM685.256 608.346C675.716 613.688 665.794 620.08 655.491 627.521C645.378 634.772 635.457 642.785 625.726 651.562C616.186 660.339 607.123 669.784 598.537 679.896C589.951 690.009 582.414 700.503 575.927 711.379C569.439 722.254 564.288 733.416 560.472 744.864C556.846 756.503 555.034 768.142 555.034 779.781C555.034 787.032 556.179 793.519 558.468 799.243C560.758 805.158 564.002 810.119 568.199 814.125C572.397 818.323 577.358 821.567 583.082 823.856C588.806 826.146 595.102 827.291 601.971 827.291C628.874 827.291 649.862 812.981 664.936 784.36C680.009 755.931 687.546 714.336 687.546 659.576C687.546 651.372 687.355 642.976 686.973 634.39C686.592 625.995 686.019 617.313 685.256 608.346Z" stroke="#6D2128" stroke-width="2" mask="url(#path-4-inside-1)"/>
<path d="M826.926 403.997C826.926 411.248 824.35 417.449 819.199 422.6C814.238 427.561 808.132 430.042 800.882 430.042C793.631 430.042 787.43 427.561 782.279 422.6C777.318 417.449 774.837 411.248 774.837 403.997C774.837 400.372 775.505 397.033 776.841 393.98C778.176 390.736 779.989 387.97 782.279 385.68C784.759 383.2 787.526 381.292 790.579 379.956C793.822 378.62 797.257 377.953 800.882 377.953C804.507 377.953 807.846 378.62 810.899 379.956C814.143 381.292 816.909 383.2 819.199 385.68C821.679 387.97 823.587 390.736 824.923 393.98C826.258 397.033 826.926 400.372 826.926 403.997ZM780.561 571.712C780.561 544.236 782.279 516.856 785.713 489.572C786.095 486.9 787.24 484.611 789.148 482.703C791.246 480.604 793.918 479.555 797.161 479.555C800.023 479.555 802.408 480.699 804.316 482.989C806.224 485.088 807.178 487.568 807.178 490.43C807.178 491.575 806.892 495.01 806.32 500.734C805.938 506.458 805.366 513.327 804.602 521.34C804.03 529.163 803.458 537.558 802.885 546.526C802.504 555.303 802.313 563.412 802.313 570.853C802.313 580.966 803.267 589.17 805.175 595.467C807.274 601.572 809.85 606.342 812.902 609.777C816.146 613.211 819.485 615.501 822.919 616.646C826.545 617.79 829.979 618.363 833.223 618.363C838.565 618.363 844.098 616.455 849.823 612.639C855.547 608.823 861.366 603.48 867.281 596.611C873.387 589.743 879.492 581.538 885.598 571.998C891.703 562.267 897.714 551.487 903.629 539.657C904.583 537.749 905.918 536.318 907.635 535.364C909.353 534.219 911.261 533.647 913.359 533.647C916.412 533.647 918.893 534.792 920.801 537.081C922.9 539.371 923.949 541.851 923.949 544.523C923.949 546.431 923.567 548.052 922.804 549.388C920.515 553.776 917.653 559.119 914.218 565.415C910.784 571.712 906.872 578.199 902.484 584.877C898.095 591.555 893.23 598.233 887.887 604.911C882.736 611.399 877.203 617.313 871.288 622.656C865.373 627.808 859.172 632.005 852.685 635.249C846.197 638.492 839.615 640.114 832.937 640.114C824.35 640.114 816.814 638.302 810.327 634.676C803.839 631.051 798.306 626.186 793.727 620.08C789.338 613.974 785.999 606.819 783.71 598.615C781.611 590.22 780.561 581.252 780.561 571.712ZM810.899 403.997C810.899 401.326 809.85 399.036 807.751 397.128C805.843 395.029 803.553 393.98 800.882 393.98C798.211 393.98 795.921 395.029 794.013 397.128C792.105 399.036 791.151 401.326 791.151 403.997C791.151 406.668 792.105 408.958 794.013 410.866C795.921 412.774 798.211 413.728 800.882 413.728C803.553 413.728 805.843 412.774 807.751 410.866C809.85 408.958 810.899 406.668 810.899 403.997Z" stroke="#6D2128" stroke-width="2" mask="url(#path-4-inside-1)"/>
<path d="M1066.19 549.388C1064.09 553.776 1061.42 559.024 1058.18 565.129C1055.13 571.044 1051.6 577.245 1047.59 583.732C1043.58 590.22 1039.1 596.707 1034.14 603.194C1029.18 609.491 1023.74 615.215 1017.82 620.366C1012.1 625.327 1005.9 629.334 999.22 632.387C992.733 635.63 985.769 637.252 978.327 637.252C966.879 637.252 957.053 633.722 948.849 626.663C940.644 619.603 933.68 610.349 927.956 598.901C922.232 587.453 917.557 574.478 913.932 559.978C910.497 545.286 907.826 530.403 905.918 515.33C904.01 500.066 902.675 485.279 901.911 470.969C901.339 456.658 901.053 443.97 901.053 432.904C901.053 416.876 901.53 400.276 902.484 383.104C903.629 365.932 905.346 349.142 907.635 332.733C909.925 316.324 912.787 300.773 916.221 286.082C919.847 271.39 924.044 258.511 928.814 247.444C933.775 236.378 939.404 227.601 945.7 221.114C951.997 214.626 959.152 211.383 967.166 211.383C973.462 211.383 979.091 212.909 984.052 215.962C989.203 218.824 993.496 223.594 996.931 230.272C1000.37 236.95 1003.04 245.632 1004.94 256.317C1006.85 267.002 1007.81 280.071 1007.81 295.526C1007.81 314.607 1005.8 334.355 1001.8 354.77C997.789 374.995 992.351 395.411 985.483 416.018C978.614 436.624 970.505 457.231 961.155 477.837C951.806 498.253 941.789 518.192 931.104 537.654C935.874 561.886 942.266 580.966 950.28 594.894C958.293 608.632 967.929 615.501 979.186 615.501C986.818 615.501 994.164 612.543 1001.22 606.629C1008.28 600.523 1014.77 593.368 1020.69 585.163C1026.6 576.959 1031.75 568.659 1036.14 560.264C1040.72 551.678 1044.25 544.809 1046.73 539.657C1047.68 537.749 1049.02 536.318 1050.74 535.364C1052.45 534.219 1054.36 533.647 1056.46 533.647C1059.7 533.647 1062.28 534.792 1064.19 537.081C1066.29 539.371 1067.34 541.947 1067.34 544.809C1067.34 545.954 1066.95 547.48 1066.19 549.388ZM922.804 434.335C922.804 446.546 923.09 458.28 923.663 469.538C924.235 480.795 924.998 491.575 925.952 501.878C933.966 486.423 941.598 470.015 948.849 452.652C956.099 435.098 962.491 417.449 968.024 399.704C973.557 381.769 977.946 364.024 981.19 346.47C984.624 328.726 986.341 311.84 986.341 295.813C986.341 273.298 984.529 257.175 980.903 247.444C977.278 237.713 972.413 232.848 966.307 232.848C962.3 232.848 958.389 235.615 954.573 241.148C950.947 246.681 947.513 254.218 944.269 263.758C941.026 273.298 938.068 284.555 935.397 297.53C932.726 310.504 930.436 324.433 928.528 339.315C926.811 354.198 925.38 369.748 924.235 385.966C923.281 402.185 922.804 418.307 922.804 434.335Z" stroke="#6D2128" stroke-width="2" mask="url(#path-4-inside-1)"/>
<path d="M1093.67 403.997C1093.67 411.248 1091.09 417.449 1085.94 422.6C1080.98 427.561 1074.87 430.042 1067.62 430.042C1060.37 430.042 1054.17 427.561 1049.02 422.6C1044.06 417.449 1041.58 411.248 1041.58 403.997C1041.58 400.372 1042.25 397.033 1043.58 393.98C1044.92 390.736 1046.73 387.97 1049.02 385.68C1051.5 383.2 1054.27 381.292 1057.32 379.956C1060.56 378.62 1064 377.953 1067.62 377.953C1071.25 377.953 1074.59 378.62 1077.64 379.956C1080.88 381.292 1083.65 383.2 1085.94 385.68C1088.42 387.97 1090.33 390.736 1091.66 393.98C1093 397.033 1093.67 400.372 1093.67 403.997ZM1047.3 571.712C1047.3 544.236 1049.02 516.856 1052.45 489.572C1052.84 486.9 1053.98 484.611 1055.89 482.703C1057.99 480.604 1060.66 479.555 1063.9 479.555C1066.76 479.555 1069.15 480.699 1071.06 482.989C1072.97 485.088 1073.92 487.568 1073.92 490.43C1073.92 491.575 1073.63 495.01 1073.06 500.734C1072.68 506.458 1072.11 513.327 1071.34 521.34C1070.77 529.163 1070.2 537.558 1069.63 546.526C1069.24 555.303 1069.05 563.412 1069.05 570.853C1069.05 580.966 1070.01 589.17 1071.92 595.467C1074.01 601.572 1076.59 606.342 1079.64 609.777C1082.89 613.211 1086.23 615.501 1089.66 616.646C1093.29 617.79 1096.72 618.363 1099.96 618.363C1105.31 618.363 1110.84 616.455 1116.56 612.639C1122.29 608.823 1128.11 603.48 1134.02 596.611C1140.13 589.743 1146.23 581.538 1152.34 571.998C1158.44 562.267 1164.45 551.487 1170.37 539.657C1171.32 537.749 1172.66 536.318 1174.38 535.364C1176.09 534.219 1178 533.647 1180.1 533.647C1183.15 533.647 1185.63 534.792 1187.54 537.081C1189.64 539.371 1190.69 541.851 1190.69 544.523C1190.69 546.431 1190.31 548.052 1189.54 549.388C1187.26 553.776 1184.39 559.119 1180.96 565.415C1177.52 571.712 1173.61 578.199 1169.22 584.877C1164.84 591.555 1159.97 598.233 1154.63 604.911C1149.48 611.399 1143.94 617.313 1138.03 622.656C1132.11 627.808 1125.91 632.005 1119.43 635.249C1112.94 638.492 1106.36 640.114 1099.68 640.114C1091.09 640.114 1083.55 638.302 1077.07 634.676C1070.58 631.051 1065.05 626.186 1060.47 620.08C1056.08 613.974 1052.74 606.819 1050.45 598.615C1048.35 590.22 1047.3 581.252 1047.3 571.712ZM1077.64 403.997C1077.64 401.326 1076.59 399.036 1074.49 397.128C1072.58 395.029 1070.29 393.98 1067.62 393.98C1064.95 393.98 1062.66 395.029 1060.75 397.128C1058.85 399.036 1057.89 401.326 1057.89 403.997C1057.89 406.668 1058.85 408.958 1060.75 410.866C1062.66 412.774 1064.95 413.728 1067.62 413.728C1070.29 413.728 1072.58 412.774 1074.49 410.866C1076.59 408.958 1077.64 406.668 1077.64 403.997Z" stroke="#6D2128" stroke-width="2" mask="url(#path-4-inside-1)"/>
<mask id="path-5-inside-2" fill="white">
<path d="M707.732 1110C743.603 1063.25 768.503 1024.42 782.431 993.513C783.385 991.414 784.626 989.888 786.152 988.934C787.869 987.789 789.777 987.217 791.876 987.217C795.12 987.217 797.791 988.362 799.89 990.651C801.989 992.75 803.038 995.23 803.038 998.092C803.038 999.428 802.752 1000.76 802.179 1002.1C793.784 1021.18 781.859 1042.45 766.404 1065.92C750.949 1089.39 731.392 1115.91 707.732 1145.49C707.732 1157.51 707.828 1169.53 708.019 1181.55C708.209 1193.57 708.305 1206.73 708.305 1221.04C708.305 1235.35 707.923 1249.47 707.16 1263.4C706.588 1277.52 705.443 1290.88 703.726 1303.47C702.008 1316.25 699.623 1327.99 696.571 1338.67C693.709 1349.55 689.893 1358.9 685.122 1366.72C680.543 1374.74 674.915 1380.94 668.237 1385.32C661.749 1389.9 654.022 1392.19 645.054 1392.19C632.27 1392.19 622.444 1387.33 615.575 1377.6C608.706 1367.87 605.272 1354.03 605.272 1336.1C605.272 1326.56 606.131 1316.16 607.848 1304.9C609.756 1293.84 612.427 1282.39 615.861 1270.56C619.296 1258.73 623.398 1246.71 628.168 1234.5C633.129 1222.48 638.567 1210.74 644.482 1199.29C650.397 1187.84 656.788 1176.87 663.657 1166.38C670.717 1155.89 678.158 1146.35 685.981 1137.76C686.172 1124.4 686.267 1111.14 686.267 1097.98C686.458 1084.81 686.744 1072.7 687.126 1061.63C681.402 1068.88 674.533 1074.6 666.519 1078.8C658.696 1083 650.874 1085.1 643.051 1085.1C636.373 1085.1 630.267 1083.86 624.734 1081.38C619.391 1078.71 614.812 1075.08 610.996 1070.5C607.18 1065.73 604.223 1060.2 602.124 1053.9C600.025 1047.61 598.975 1040.74 598.975 1033.3C598.975 1018.41 601.456 1005.34 606.417 994.086C611.568 982.637 618.056 973.097 625.879 965.465C633.701 957.833 642.287 952.109 651.637 948.293C661.177 944.477 670.335 942.569 679.112 942.569C685.027 942.569 690.465 943.332 695.426 944.859C700.387 946.385 704.584 948.102 708.019 950.01C711.644 951.918 714.411 953.731 716.319 955.448C718.227 957.165 719.276 958.119 719.467 958.31C721.566 960.6 722.615 963.176 722.615 966.038C722.615 968.9 721.566 971.476 719.467 973.765C717.368 975.864 714.888 976.913 712.026 976.913C709.354 976.913 706.778 975.864 704.298 973.765C703.535 973.193 702.485 972.43 701.15 971.476C700.005 970.331 698.383 969.186 696.284 968.041C694.376 966.896 691.991 965.942 689.129 965.179C686.458 964.416 683.214 964.034 679.398 964.034C673.674 964.034 667.378 965.37 660.509 968.041C653.64 970.522 647.248 974.528 641.333 980.062C635.419 985.595 630.458 992.75 626.451 1001.53C622.444 1010.11 620.441 1020.51 620.441 1032.72C620.441 1041.88 622.444 1049.32 626.451 1055.05C630.458 1060.58 636.659 1063.35 645.054 1063.35C649.061 1063.35 653.259 1062.2 657.647 1059.91C662.226 1057.62 666.615 1054.09 670.812 1049.32C675.01 1044.55 678.635 1038.54 681.688 1031.29C684.932 1024.04 687.221 1015.46 688.557 1005.53C688.939 1002.86 690.179 1000.67 692.278 998.951C694.376 997.043 696.857 996.089 699.719 996.089C702.962 996.089 705.443 997.234 707.16 999.523C709.068 1001.81 710.022 1004.39 710.022 1007.25C710.022 1007.44 709.927 1010.4 709.736 1016.12C709.545 1021.66 709.354 1029.1 709.163 1038.45C708.973 1047.8 708.686 1058.67 708.305 1071.07C708.114 1083.29 707.923 1096.26 707.732 1110ZM685.981 1172.68C677.013 1185.08 668.904 1198.53 661.654 1213.03C654.403 1227.72 648.202 1242.51 643.051 1257.39C637.899 1272.27 633.892 1286.68 631.03 1300.61C628.359 1314.73 627.023 1327.32 627.023 1338.39C627.023 1345.45 627.596 1351.08 628.741 1355.27C630.076 1359.47 631.603 1362.71 633.32 1365C635.228 1367.29 637.231 1368.82 639.33 1369.58C641.62 1370.35 643.718 1370.73 645.627 1370.73C651.541 1370.73 656.693 1368.34 661.081 1363.57C665.47 1358.8 669.191 1352.41 672.243 1344.4C675.296 1336.57 677.777 1327.51 679.685 1317.21C681.593 1306.9 683.024 1296.22 683.978 1285.15C684.932 1274.28 685.599 1263.4 685.981 1252.53C686.363 1241.65 686.553 1231.63 686.553 1222.48C686.553 1214.27 686.553 1206.07 686.553 1197.86C686.553 1189.66 686.363 1181.26 685.981 1172.68Z"/>
<path d="M829.369 857.281C829.369 864.531 826.793 870.732 821.641 875.884C816.68 880.845 810.575 883.325 803.324 883.325C796.074 883.325 789.873 880.845 784.721 875.884C779.76 870.732 777.28 864.531 777.28 857.281C777.28 853.656 777.948 850.316 779.283 847.264C780.619 844.02 782.431 841.253 784.721 838.964C787.201 836.483 789.968 834.575 793.021 833.24C796.264 831.904 799.699 831.236 803.324 831.236C806.949 831.236 810.288 831.904 813.341 833.24C816.585 834.575 819.351 836.483 821.641 838.964C824.122 841.253 826.03 844.02 827.365 847.264C828.701 850.316 829.369 853.656 829.369 857.281ZM783.004 1025C783.004 997.52 784.721 970.14 788.155 942.855C788.537 940.184 789.682 937.894 791.59 935.986C793.689 933.888 796.36 932.838 799.604 932.838C802.466 932.838 804.851 933.983 806.759 936.273C808.667 938.371 809.621 940.852 809.621 943.714C809.621 944.859 809.334 948.293 808.762 954.017C808.38 959.741 807.808 966.61 807.045 974.624C806.472 982.447 805.9 990.842 805.328 999.81C804.946 1008.59 804.755 1016.7 804.755 1024.14C804.755 1034.25 805.709 1042.45 807.617 1048.75C809.716 1054.86 812.292 1059.63 815.345 1063.06C818.588 1066.49 821.927 1068.78 825.362 1069.93C828.987 1071.07 832.421 1071.65 835.665 1071.65C841.007 1071.65 846.541 1069.74 852.265 1065.92C857.989 1062.11 863.808 1056.76 869.723 1049.9C875.829 1043.03 881.934 1034.82 888.04 1025.28C894.146 1015.55 900.156 1004.77 906.071 992.941C907.025 991.033 908.36 989.602 910.078 988.648C911.795 987.503 913.703 986.931 915.802 986.931C918.855 986.931 921.335 988.075 923.243 990.365C925.342 992.655 926.391 995.135 926.391 997.806C926.391 999.714 926.01 1001.34 925.246 1002.67C922.957 1007.06 920.095 1012.4 916.66 1018.7C913.226 1025 909.314 1031.48 904.926 1038.16C900.538 1044.84 895.672 1051.52 890.33 1058.19C885.178 1064.68 879.645 1070.6 873.73 1075.94C867.815 1081.09 861.614 1085.29 855.127 1088.53C848.64 1091.78 842.057 1093.4 835.379 1093.4C826.793 1093.4 819.256 1091.59 812.769 1087.96C806.282 1084.33 800.748 1079.47 796.169 1073.36C791.781 1067.26 788.442 1060.1 786.152 1051.9C784.053 1043.5 783.004 1034.54 783.004 1025ZM813.341 857.281C813.341 854.61 812.292 852.32 810.193 850.412C808.285 848.313 805.995 847.264 803.324 847.264C800.653 847.264 798.363 848.313 796.455 850.412C794.547 852.32 793.593 854.61 793.593 857.281C793.593 859.952 794.547 862.242 796.455 864.15C798.363 866.058 800.653 867.012 803.324 867.012C805.995 867.012 808.285 866.058 810.193 864.15C812.292 862.242 813.341 859.952 813.341 857.281Z"/>
<path d="M1068.63 1002.67C1066.54 1007.06 1063.86 1012.31 1060.62 1018.41C1057.57 1024.33 1054.04 1030.53 1050.03 1037.02C1046.02 1043.5 1041.54 1049.99 1036.58 1056.48C1031.62 1062.77 1026.18 1068.5 1020.27 1073.65C1014.54 1078.61 1008.34 1082.62 1001.66 1085.67C995.175 1088.91 988.211 1090.54 980.77 1090.54C969.322 1090.54 959.495 1087.01 951.291 1079.95C943.086 1072.89 936.122 1063.63 930.398 1052.18C924.674 1040.74 919.999 1027.76 916.374 1013.26C912.94 998.569 910.268 983.687 908.36 968.614C906.452 953.349 905.117 938.562 904.354 924.252C903.781 909.942 903.495 897.254 903.495 886.187C903.495 870.16 903.972 853.56 904.926 836.388C906.071 819.216 907.788 802.425 910.078 786.016C912.367 769.607 915.229 754.057 918.664 739.365C922.289 724.674 926.487 711.794 931.257 700.728C936.218 689.661 941.846 680.885 948.143 674.397C954.439 667.91 961.594 664.666 969.608 664.666C975.904 664.666 981.533 666.193 986.494 669.246C991.645 672.108 995.938 676.878 999.373 683.556C1002.81 690.234 1005.48 698.915 1007.39 709.6C1009.29 720.285 1010.25 733.355 1010.25 748.81C1010.25 767.89 1008.25 787.638 1004.24 808.054C1000.23 828.279 994.794 848.695 987.925 869.301C981.056 889.908 972.947 910.514 963.598 931.121C954.248 951.537 944.231 971.476 933.546 990.937C938.316 1015.17 944.708 1034.25 952.722 1048.18C960.736 1061.92 970.371 1068.78 981.628 1068.78C989.26 1068.78 996.606 1065.83 1003.67 1059.91C1010.73 1053.81 1017.21 1046.65 1023.13 1038.45C1029.04 1030.24 1034.19 1021.94 1038.58 1013.55C1043.16 1004.96 1046.69 998.092 1049.17 992.941C1050.13 991.033 1051.46 989.602 1053.18 988.648C1054.9 987.503 1056.8 986.931 1058.9 986.931C1062.15 986.931 1064.72 988.075 1066.63 990.365C1068.73 992.655 1069.78 995.23 1069.78 998.092C1069.78 999.237 1069.4 1000.76 1068.63 1002.67ZM925.246 887.618C925.246 899.83 925.533 911.564 926.105 922.821C926.677 934.078 927.441 944.859 928.395 955.162C936.408 939.707 944.04 923.298 951.291 905.935C958.541 888.381 964.933 870.732 970.466 852.988C976 835.052 980.388 817.308 983.632 799.754C987.066 782.009 988.783 765.124 988.783 749.096C988.783 726.582 986.971 710.459 983.346 700.728C979.72 690.997 974.855 686.132 968.749 686.132C964.742 686.132 960.831 688.898 957.015 694.431C953.39 699.965 949.955 707.501 946.712 717.041C943.468 726.582 940.511 737.839 937.839 750.813C935.168 763.788 932.879 777.716 930.97 792.599C929.253 807.482 927.822 823.032 926.677 839.25C925.723 855.468 925.246 871.591 925.246 887.618Z"/>
<path d="M1096.11 857.281C1096.11 864.531 1093.53 870.732 1088.38 875.884C1083.42 880.845 1077.32 883.325 1070.06 883.325C1062.81 883.325 1056.61 880.845 1051.46 875.884C1046.5 870.732 1044.02 864.531 1044.02 857.281C1044.02 853.656 1044.69 850.316 1046.02 847.264C1047.36 844.02 1049.17 841.253 1051.46 838.964C1053.94 836.483 1056.71 834.575 1059.76 833.24C1063.01 831.904 1066.44 831.236 1070.06 831.236C1073.69 831.236 1077.03 831.904 1080.08 833.24C1083.33 834.575 1086.09 836.483 1088.38 838.964C1090.86 841.253 1092.77 844.02 1094.11 847.264C1095.44 850.316 1096.11 853.656 1096.11 857.281ZM1049.74 1025C1049.74 997.52 1051.46 970.14 1054.9 942.855C1055.28 940.184 1056.42 937.894 1058.33 935.986C1060.43 933.888 1063.1 932.838 1066.34 932.838C1069.21 932.838 1071.59 933.983 1073.5 936.273C1075.41 938.371 1076.36 940.852 1076.36 943.714C1076.36 944.859 1076.08 948.293 1075.5 954.017C1075.12 959.741 1074.55 966.61 1073.79 974.624C1073.21 982.447 1072.64 990.842 1072.07 999.81C1071.69 1008.59 1071.5 1016.7 1071.5 1024.14C1071.5 1034.25 1072.45 1042.45 1074.36 1048.75C1076.46 1054.86 1079.03 1059.63 1082.09 1063.06C1085.33 1066.49 1088.67 1068.78 1092.1 1069.93C1095.73 1071.07 1099.16 1071.65 1102.41 1071.65C1107.75 1071.65 1113.28 1069.74 1119.01 1065.92C1124.73 1062.11 1130.55 1056.76 1136.46 1049.9C1142.57 1043.03 1148.68 1034.82 1154.78 1025.28C1160.89 1015.55 1166.9 1004.77 1172.81 992.941C1173.77 991.033 1175.1 989.602 1176.82 988.648C1178.54 987.503 1180.44 986.931 1182.54 986.931C1185.6 986.931 1188.08 988.075 1189.98 990.365C1192.08 992.655 1193.13 995.135 1193.13 997.806C1193.13 999.714 1192.75 1001.34 1191.99 1002.67C1189.7 1007.06 1186.84 1012.4 1183.4 1018.7C1179.97 1025 1176.06 1031.48 1171.67 1038.16C1167.28 1044.84 1162.41 1051.52 1157.07 1058.19C1151.92 1064.68 1146.39 1070.6 1140.47 1075.94C1134.56 1081.09 1128.35 1085.29 1121.87 1088.53C1115.38 1091.78 1108.8 1093.4 1102.12 1093.4C1093.53 1093.4 1086 1091.59 1079.51 1087.96C1073.02 1084.33 1067.49 1079.47 1062.91 1073.36C1058.52 1067.26 1055.18 1060.1 1052.89 1051.9C1050.79 1043.5 1049.74 1034.54 1049.74 1025ZM1080.08 857.281C1080.08 854.61 1079.03 852.32 1076.93 850.412C1075.03 848.313 1072.74 847.264 1070.06 847.264C1067.39 847.264 1065.1 848.313 1063.2 850.412C1061.29 852.32 1060.33 854.61 1060.33 857.281C1060.33 859.952 1061.29 862.242 1063.2 864.15C1065.1 866.058 1067.39 867.012 1070.06 867.012C1072.74 867.012 1075.03 866.058 1076.93 864.15C1079.03 862.242 1080.08 859.952 1080.08 857.281Z"/>
</mask>
<path d="M707.732 1110C743.603 1063.25 768.503 1024.42 782.431 993.513C783.385 991.414 784.626 989.888 786.152 988.934C787.869 987.789 789.777 987.217 791.876 987.217C795.12 987.217 797.791 988.362 799.89 990.651C801.989 992.75 803.038 995.23 803.038 998.092C803.038 999.428 802.752 1000.76 802.179 1002.1C793.784 1021.18 781.859 1042.45 766.404 1065.92C750.949 1089.39 731.392 1115.91 707.732 1145.49C707.732 1157.51 707.828 1169.53 708.019 1181.55C708.209 1193.57 708.305 1206.73 708.305 1221.04C708.305 1235.35 707.923 1249.47 707.16 1263.4C706.588 1277.52 705.443 1290.88 703.726 1303.47C702.008 1316.25 699.623 1327.99 696.571 1338.67C693.709 1349.55 689.893 1358.9 685.122 1366.72C680.543 1374.74 674.915 1380.94 668.237 1385.32C661.749 1389.9 654.022 1392.19 645.054 1392.19C632.27 1392.19 622.444 1387.33 615.575 1377.6C608.706 1367.87 605.272 1354.03 605.272 1336.1C605.272 1326.56 606.131 1316.16 607.848 1304.9C609.756 1293.84 612.427 1282.39 615.861 1270.56C619.296 1258.73 623.398 1246.71 628.168 1234.5C633.129 1222.48 638.567 1210.74 644.482 1199.29C650.397 1187.84 656.788 1176.87 663.657 1166.38C670.717 1155.89 678.158 1146.35 685.981 1137.76C686.172 1124.4 686.267 1111.14 686.267 1097.98C686.458 1084.81 686.744 1072.7 687.126 1061.63C681.402 1068.88 674.533 1074.6 666.519 1078.8C658.696 1083 650.874 1085.1 643.051 1085.1C636.373 1085.1 630.267 1083.86 624.734 1081.38C619.391 1078.71 614.812 1075.08 610.996 1070.5C607.18 1065.73 604.223 1060.2 602.124 1053.9C600.025 1047.61 598.975 1040.74 598.975 1033.3C598.975 1018.41 601.456 1005.34 606.417 994.086C611.568 982.637 618.056 973.097 625.879 965.465C633.701 957.833 642.287 952.109 651.637 948.293C661.177 944.477 670.335 942.569 679.112 942.569C685.027 942.569 690.465 943.332 695.426 944.859C700.387 946.385 704.584 948.102 708.019 950.01C711.644 951.918 714.411 953.731 716.319 955.448C718.227 957.165 719.276 958.119 719.467 958.31C721.566 960.6 722.615 963.176 722.615 966.038C722.615 968.9 721.566 971.476 719.467 973.765C717.368 975.864 714.888 976.913 712.026 976.913C709.354 976.913 706.778 975.864 704.298 973.765C703.535 973.193 702.485 972.43 701.15 971.476C700.005 970.331 698.383 969.186 696.284 968.041C694.376 966.896 691.991 965.942 689.129 965.179C686.458 964.416 683.214 964.034 679.398 964.034C673.674 964.034 667.378 965.37 660.509 968.041C653.64 970.522 647.248 974.528 641.333 980.062C635.419 985.595 630.458 992.75 626.451 1001.53C622.444 1010.11 620.441 1020.51 620.441 1032.72C620.441 1041.88 622.444 1049.32 626.451 1055.05C630.458 1060.58 636.659 1063.35 645.054 1063.35C649.061 1063.35 653.259 1062.2 657.647 1059.91C662.226 1057.62 666.615 1054.09 670.812 1049.32C675.01 1044.55 678.635 1038.54 681.688 1031.29C684.932 1024.04 687.221 1015.46 688.557 1005.53C688.939 1002.86 690.179 1000.67 692.278 998.951C694.376 997.043 696.857 996.089 699.719 996.089C702.962 996.089 705.443 997.234 707.16 999.523C709.068 1001.81 710.022 1004.39 710.022 1007.25C710.022 1007.44 709.927 1010.4 709.736 1016.12C709.545 1021.66 709.354 1029.1 709.163 1038.45C708.973 1047.8 708.686 1058.67 708.305 1071.07C708.114 1083.29 707.923 1096.26 707.732 1110ZM685.981 1172.68C677.013 1185.08 668.904 1198.53 661.654 1213.03C654.403 1227.72 648.202 1242.51 643.051 1257.39C637.899 1272.27 633.892 1286.68 631.03 1300.61C628.359 1314.73 627.023 1327.32 627.023 1338.39C627.023 1345.45 627.596 1351.08 628.741 1355.27C630.076 1359.47 631.603 1362.71 633.32 1365C635.228 1367.29 637.231 1368.82 639.33 1369.58C641.62 1370.35 643.718 1370.73 645.627 1370.73C651.541 1370.73 656.693 1368.34 661.081 1363.57C665.47 1358.8 669.191 1352.41 672.243 1344.4C675.296 1336.57 677.777 1327.51 679.685 1317.21C681.593 1306.9 683.024 1296.22 683.978 1285.15C684.932 1274.28 685.599 1263.4 685.981 1252.53C686.363 1241.65 686.553 1231.63 686.553 1222.48C686.553 1214.27 686.553 1206.07 686.553 1197.86C686.553 1189.66 686.363 1181.26 685.981 1172.68Z" fill="#6D2128"/>
<path d="M829.369 857.281C829.369 864.531 826.793 870.732 821.641 875.884C816.68 880.845 810.575 883.325 803.324 883.325C796.074 883.325 789.873 880.845 784.721 875.884C779.76 870.732 777.28 864.531 777.28 857.281C777.28 853.656 777.948 850.316 779.283 847.264C780.619 844.02 782.431 841.253 784.721 838.964C787.201 836.483 789.968 834.575 793.021 833.24C796.264 831.904 799.699 831.236 803.324 831.236C806.949 831.236 810.288 831.904 813.341 833.24C816.585 834.575 819.351 836.483 821.641 838.964C824.122 841.253 826.03 844.02 827.365 847.264C828.701 850.316 829.369 853.656 829.369 857.281ZM783.004 1025C783.004 997.52 784.721 970.14 788.155 942.855C788.537 940.184 789.682 937.894 791.59 935.986C793.689 933.888 796.36 932.838 799.604 932.838C802.466 932.838 804.851 933.983 806.759 936.273C808.667 938.371 809.621 940.852 809.621 943.714C809.621 944.859 809.334 948.293 808.762 954.017C808.38 959.741 807.808 966.61 807.045 974.624C806.472 982.447 805.9 990.842 805.328 999.81C804.946 1008.59 804.755 1016.7 804.755 1024.14C804.755 1034.25 805.709 1042.45 807.617 1048.75C809.716 1054.86 812.292 1059.63 815.345 1063.06C818.588 1066.49 821.927 1068.78 825.362 1069.93C828.987 1071.07 832.421 1071.65 835.665 1071.65C841.007 1071.65 846.541 1069.74 852.265 1065.92C857.989 1062.11 863.808 1056.76 869.723 1049.9C875.829 1043.03 881.934 1034.82 888.04 1025.28C894.146 1015.55 900.156 1004.77 906.071 992.941C907.025 991.033 908.36 989.602 910.078 988.648C911.795 987.503 913.703 986.931 915.802 986.931C918.855 986.931 921.335 988.075 923.243 990.365C925.342 992.655 926.391 995.135 926.391 997.806C926.391 999.714 926.01 1001.34 925.246 1002.67C922.957 1007.06 920.095 1012.4 916.66 1018.7C913.226 1025 909.314 1031.48 904.926 1038.16C900.538 1044.84 895.672 1051.52 890.33 1058.19C885.178 1064.68 879.645 1070.6 873.73 1075.94C867.815 1081.09 861.614 1085.29 855.127 1088.53C848.64 1091.78 842.057 1093.4 835.379 1093.4C826.793 1093.4 819.256 1091.59 812.769 1087.96C806.282 1084.33 800.748 1079.47 796.169 1073.36C791.781 1067.26 788.442 1060.1 786.152 1051.9C784.053 1043.5 783.004 1034.54 783.004 1025ZM813.341 857.281C813.341 854.61 812.292 852.32 810.193 850.412C808.285 848.313 805.995 847.264 803.324 847.264C800.653 847.264 798.363 848.313 796.455 850.412C794.547 852.32 793.593 854.61 793.593 857.281C793.593 859.952 794.547 862.242 796.455 864.15C798.363 866.058 800.653 867.012 803.324 867.012C805.995 867.012 808.285 866.058 810.193 864.15C812.292 862.242 813.341 859.952 813.341 857.281Z" fill="#6D2128"/>
<path d="M1068.63 1002.67C1066.54 1007.06 1063.86 1012.31 1060.62 1018.41C1057.57 1024.33 1054.04 1030.53 1050.03 1037.02C1046.02 1043.5 1041.54 1049.99 1036.58 1056.48C1031.62 1062.77 1026.18 1068.5 1020.27 1073.65C1014.54 1078.61 1008.34 1082.62 1001.66 1085.67C995.175 1088.91 988.211 1090.54 980.77 1090.54C969.322 1090.54 959.495 1087.01 951.291 1079.95C943.086 1072.89 936.122 1063.63 930.398 1052.18C924.674 1040.74 919.999 1027.76 916.374 1013.26C912.94 998.569 910.268 983.687 908.36 968.614C906.452 953.349 905.117 938.562 904.354 924.252C903.781 909.942 903.495 897.254 903.495 886.187C903.495 870.16 903.972 853.56 904.926 836.388C906.071 819.216 907.788 802.425 910.078 786.016C912.367 769.607 915.229 754.057 918.664 739.365C922.289 724.674 926.487 711.794 931.257 700.728C936.218 689.661 941.846 680.885 948.143 674.397C954.439 667.91 961.594 664.666 969.608 664.666C975.904 664.666 981.533 666.193 986.494 669.246C991.645 672.108 995.938 676.878 999.373 683.556C1002.81 690.234 1005.48 698.915 1007.39 709.6C1009.29 720.285 1010.25 733.355 1010.25 748.81C1010.25 767.89 1008.25 787.638 1004.24 808.054C1000.23 828.279 994.794 848.695 987.925 869.301C981.056 889.908 972.947 910.514 963.598 931.121C954.248 951.537 944.231 971.476 933.546 990.937C938.316 1015.17 944.708 1034.25 952.722 1048.18C960.736 1061.92 970.371 1068.78 981.628 1068.78C989.26 1068.78 996.606 1065.83 1003.67 1059.91C1010.73 1053.81 1017.21 1046.65 1023.13 1038.45C1029.04 1030.24 1034.19 1021.94 1038.58 1013.55C1043.16 1004.96 1046.69 998.092 1049.17 992.941C1050.13 991.033 1051.46 989.602 1053.18 988.648C1054.9 987.503 1056.8 986.931 1058.9 986.931C1062.15 986.931 1064.72 988.075 1066.63 990.365C1068.73 992.655 1069.78 995.23 1069.78 998.092C1069.78 999.237 1069.4 1000.76 1068.63 1002.67ZM925.246 887.618C925.246 899.83 925.533 911.564 926.105 922.821C926.677 934.078 927.441 944.859 928.395 955.162C936.408 939.707 944.04 923.298 951.291 905.935C958.541 888.381 964.933 870.732 970.466 852.988C976 835.052 980.388 817.308 983.632 799.754C987.066 782.009 988.783 765.124 988.783 749.096C988.783 726.582 986.971 710.459 983.346 700.728C979.72 690.997 974.855 686.132 968.749 686.132C964.742 686.132 960.831 688.898 957.015 694.431C953.39 699.965 949.955 707.501 946.712 717.041C943.468 726.582 940.511 737.839 937.839 750.813C935.168 763.788 932.879 777.716 930.97 792.599C929.253 807.482 927.822 823.032 926.677 839.25C925.723 855.468 925.246 871.591 925.246 887.618Z" fill="#6D2128"/>
<path d="M1096.11 857.281C1096.11 864.531 1093.53 870.732 1088.38 875.884C1083.42 880.845 1077.32 883.325 1070.06 883.325C1062.81 883.325 1056.61 880.845 1051.46 875.884C1046.5 870.732 1044.02 864.531 1044.02 857.281C1044.02 853.656 1044.69 850.316 1046.02 847.264C1047.36 844.02 1049.17 841.253 1051.46 838.964C1053.94 836.483 1056.71 834.575 1059.76 833.24C1063.01 831.904 1066.44 831.236 1070.06 831.236C1073.69 831.236 1077.03 831.904 1080.08 833.24C1083.33 834.575 1086.09 836.483 1088.38 838.964C1090.86 841.253 1092.77 844.02 1094.11 847.264C1095.44 850.316 1096.11 853.656 1096.11 857.281ZM1049.74 1025C1049.74 997.52 1051.46 970.14 1054.9 942.855C1055.28 940.184 1056.42 937.894 1058.33 935.986C1060.43 933.888 1063.1 932.838 1066.34 932.838C1069.21 932.838 1071.59 933.983 1073.5 936.273C1075.41 938.371 1076.36 940.852 1076.36 943.714C1076.36 944.859 1076.08 948.293 1075.5 954.017C1075.12 959.741 1074.55 966.61 1073.79 974.624C1073.21 982.447 1072.64 990.842 1072.07 999.81C1071.69 1008.59 1071.5 1016.7 1071.5 1024.14C1071.5 1034.25 1072.45 1042.45 1074.36 1048.75C1076.46 1054.86 1079.03 1059.63 1082.09 1063.06C1085.33 1066.49 1088.67 1068.78 1092.1 1069.93C1095.73 1071.07 1099.16 1071.65 1102.41 1071.65C1107.75 1071.65 1113.28 1069.74 1119.01 1065.92C1124.73 1062.11 1130.55 1056.76 1136.46 1049.9C1142.57 1043.03 1148.68 1034.82 1154.78 1025.28C1160.89 1015.55 1166.9 1004.77 1172.81 992.941C1173.77 991.033 1175.1 989.602 1176.82 988.648C1178.54 987.503 1180.44 986.931 1182.54 986.931C1185.6 986.931 1188.08 988.075 1189.98 990.365C1192.08 992.655 1193.13 995.135 1193.13 997.806C1193.13 999.714 1192.75 1001.34 1191.99 1002.67C1189.7 1007.06 1186.84 1012.4 1183.4 1018.7C1179.97 1025 1176.06 1031.48 1171.67 1038.16C1167.28 1044.84 1162.41 1051.52 1157.07 1058.19C1151.92 1064.68 1146.39 1070.6 1140.47 1075.94C1134.56 1081.09 1128.35 1085.29 1121.87 1088.53C1115.38 1091.78 1108.8 1093.4 1102.12 1093.4C1093.53 1093.4 1086 1091.59 1079.51 1087.96C1073.02 1084.33 1067.49 1079.47 1062.91 1073.36C1058.52 1067.26 1055.18 1060.1 1052.89 1051.9C1050.79 1043.5 1049.74 1034.54 1049.74 1025ZM1080.08 857.281C1080.08 854.61 1079.03 852.32 1076.93 850.412C1075.03 848.313 1072.74 847.264 1070.06 847.264C1067.39 847.264 1065.1 848.313 1063.2 850.412C1061.29 852.32 1060.33 854.61 1060.33 857.281C1060.33 859.952 1061.29 862.242 1063.2 864.15C1065.1 866.058 1067.39 867.012 1070.06 867.012C1072.74 867.012 1075.03 866.058 1076.93 864.15C1079.03 862.242 1080.08 859.952 1080.08 857.281Z" fill="#6D2128"/>
<path d="M707.732 1110C743.603 1063.25 768.503 1024.42 782.431 993.513C783.385 991.414 784.626 989.888 786.152 988.934C787.869 987.789 789.777 987.217 791.876 987.217C795.12 987.217 797.791 988.362 799.89 990.651C801.989 992.75 803.038 995.23 803.038 998.092C803.038 999.428 802.752 1000.76 802.179 1002.1C793.784 1021.18 781.859 1042.45 766.404 1065.92C750.949 1089.39 731.392 1115.91 707.732 1145.49C707.732 1157.51 707.828 1169.53 708.019 1181.55C708.209 1193.57 708.305 1206.73 708.305 1221.04C708.305 1235.35 707.923 1249.47 707.16 1263.4C706.588 1277.52 705.443 1290.88 703.726 1303.47C702.008 1316.25 699.623 1327.99 696.571 1338.67C693.709 1349.55 689.893 1358.9 685.122 1366.72C680.543 1374.74 674.915 1380.94 668.237 1385.32C661.749 1389.9 654.022 1392.19 645.054 1392.19C632.27 1392.19 622.444 1387.33 615.575 1377.6C608.706 1367.87 605.272 1354.03 605.272 1336.1C605.272 1326.56 606.131 1316.16 607.848 1304.9C609.756 1293.84 612.427 1282.39 615.861 1270.56C619.296 1258.73 623.398 1246.71 628.168 1234.5C633.129 1222.48 638.567 1210.74 644.482 1199.29C650.397 1187.84 656.788 1176.87 663.657 1166.38C670.717 1155.89 678.158 1146.35 685.981 1137.76C686.172 1124.4 686.267 1111.14 686.267 1097.98C686.458 1084.81 686.744 1072.7 687.126 1061.63C681.402 1068.88 674.533 1074.6 666.519 1078.8C658.696 1083 650.874 1085.1 643.051 1085.1C636.373 1085.1 630.267 1083.86 624.734 1081.38C619.391 1078.71 614.812 1075.08 610.996 1070.5C607.18 1065.73 604.223 1060.2 602.124 1053.9C600.025 1047.61 598.975 1040.74 598.975 1033.3C598.975 1018.41 601.456 1005.34 606.417 994.086C611.568 982.637 618.056 973.097 625.879 965.465C633.701 957.833 642.287 952.109 651.637 948.293C661.177 944.477 670.335 942.569 679.112 942.569C685.027 942.569 690.465 943.332 695.426 944.859C700.387 946.385 704.584 948.102 708.019 950.01C711.644 951.918 714.411 953.731 716.319 955.448C718.227 957.165 719.276 958.119 719.467 958.31C721.566 960.6 722.615 963.176 722.615 966.038C722.615 968.9 721.566 971.476 719.467 973.765C717.368 975.864 714.888 976.913 712.026 976.913C709.354 976.913 706.778 975.864 704.298 973.765C703.535 973.193 702.485 972.43 701.15 971.476C700.005 970.331 698.383 969.186 696.284 968.041C694.376 966.896 691.991 965.942 689.129 965.179C686.458 964.416 683.214 964.034 679.398 964.034C673.674 964.034 667.378 965.37 660.509 968.041C653.64 970.522 647.248 974.528 641.333 980.062C635.419 985.595 630.458 992.75 626.451 1001.53C622.444 1010.11 620.441 1020.51 620.441 1032.72C620.441 1041.88 622.444 1049.32 626.451 1055.05C630.458 1060.58 636.659 1063.35 645.054 1063.35C649.061 1063.35 653.259 1062.2 657.647 1059.91C662.226 1057.62 666.615 1054.09 670.812 1049.32C675.01 1044.55 678.635 1038.54 681.688 1031.29C684.932 1024.04 687.221 1015.46 688.557 1005.53C688.939 1002.86 690.179 1000.67 692.278 998.951C694.376 997.043 696.857 996.089 699.719 996.089C702.962 996.089 705.443 997.234 707.16 999.523C709.068 1001.81 710.022 1004.39 710.022 1007.25C710.022 1007.44 709.927 1010.4 709.736 1016.12C709.545 1021.66 709.354 1029.1 709.163 1038.45C708.973 1047.8 708.686 1058.67 708.305 1071.07C708.114 1083.29 707.923 1096.26 707.732 1110ZM685.981 1172.68C677.013 1185.08 668.904 1198.53 661.654 1213.03C654.403 1227.72 648.202 1242.51 643.051 1257.39C637.899 1272.27 633.892 1286.68 631.03 1300.61C628.359 1314.73 627.023 1327.32 627.023 1338.39C627.023 1345.45 627.596 1351.08 628.741 1355.27C630.076 1359.47 631.603 1362.71 633.32 1365C635.228 1367.29 637.231 1368.82 639.33 1369.58C641.62 1370.35 643.718 1370.73 645.627 1370.73C651.541 1370.73 656.693 1368.34 661.081 1363.57C665.47 1358.8 669.191 1352.41 672.243 1344.4C675.296 1336.57 677.777 1327.51 679.685 1317.21C681.593 1306.9 683.024 1296.22 683.978 1285.15C684.932 1274.28 685.599 1263.4 685.981 1252.53C686.363 1241.65 686.553 1231.63 686.553 1222.48C686.553 1214.27 686.553 1206.07 686.553 1197.86C686.553 1189.66 686.363 1181.26 685.981 1172.68Z" stroke="#6D2128" stroke-width="2" mask="url(#path-5-inside-2)"/>
<path d="M829.369 857.281C829.369 864.531 826.793 870.732 821.641 875.884C816.68 880.845 810.575 883.325 803.324 883.325C796.074 883.325 789.873 880.845 784.721 875.884C779.76 870.732 777.28 864.531 777.28 857.281C777.28 853.656 777.948 850.316 779.283 847.264C780.619 844.02 782.431 841.253 784.721 838.964C787.201 836.483 789.968 834.575 793.021 833.24C796.264 831.904 799.699 831.236 803.324 831.236C806.949 831.236 810.288 831.904 813.341 833.24C816.585 834.575 819.351 836.483 821.641 838.964C824.122 841.253 826.03 844.02 827.365 847.264C828.701 850.316 829.369 853.656 829.369 857.281ZM783.004 1025C783.004 997.52 784.721 970.14 788.155 942.855C788.537 940.184 789.682 937.894 791.59 935.986C793.689 933.888 796.36 932.838 799.604 932.838C802.466 932.838 804.851 933.983 806.759 936.273C808.667 938.371 809.621 940.852 809.621 943.714C809.621 944.859 809.334 948.293 808.762 954.017C808.38 959.741 807.808 966.61 807.045 974.624C806.472 982.447 805.9 990.842 805.328 999.81C804.946 1008.59 804.755 1016.7 804.755 1024.14C804.755 1034.25 805.709 1042.45 807.617 1048.75C809.716 1054.86 812.292 1059.63 815.345 1063.06C818.588 1066.49 821.927 1068.78 825.362 1069.93C828.987 1071.07 832.421 1071.65 835.665 1071.65C841.007 1071.65 846.541 1069.74 852.265 1065.92C857.989 1062.11 863.808 1056.76 869.723 1049.9C875.829 1043.03 881.934 1034.82 888.04 1025.28C894.146 1015.55 900.156 1004.77 906.071 992.941C907.025 991.033 908.36 989.602 910.078 988.648C911.795 987.503 913.703 986.931 915.802 986.931C918.855 986.931 921.335 988.075 923.243 990.365C925.342 992.655 926.391 995.135 926.391 997.806C926.391 999.714 926.01 1001.34 925.246 1002.67C922.957 1007.06 920.095 1012.4 916.66 1018.7C913.226 1025 909.314 1031.48 904.926 1038.16C900.538 1044.84 895.672 1051.52 890.33 1058.19C885.178 1064.68 879.645 1070.6 873.73 1075.94C867.815 1081.09 861.614 1085.29 855.127 1088.53C848.64 1091.78 842.057 1093.4 835.379 1093.4C826.793 1093.4 819.256 1091.59 812.769 1087.96C806.282 1084.33 800.748 1079.47 796.169 1073.36C791.781 1067.26 788.442 1060.1 786.152 1051.9C784.053 1043.5 783.004 1034.54 783.004 1025ZM813.341 857.281C813.341 854.61 812.292 852.32 810.193 850.412C808.285 848.313 805.995 847.264 803.324 847.264C800.653 847.264 798.363 848.313 796.455 850.412C794.547 852.32 793.593 854.61 793.593 857.281C793.593 859.952 794.547 862.242 796.455 864.15C798.363 866.058 800.653 867.012 803.324 867.012C805.995 867.012 808.285 866.058 810.193 864.15C812.292 862.242 813.341 859.952 813.341 857.281Z" stroke="#6D2128" stroke-width="2" mask="url(#path-5-inside-2)"/>
<path d="M1068.63 1002.67C1066.54 1007.06 1063.86 1012.31 1060.62 1018.41C1057.57 1024.33 1054.04 1030.53 1050.03 1037.02C1046.02 1043.5 1041.54 1049.99 1036.58 1056.48C1031.62 1062.77 1026.18 1068.5 1020.27 1073.65C1014.54 1078.61 1008.34 1082.62 1001.66 1085.67C995.175 1088.91 988.211 1090.54 980.77 1090.54C969.322 1090.54 959.495 1087.01 951.291 1079.95C943.086 1072.89 936.122 1063.63 930.398 1052.18C924.674 1040.74 919.999 1027.76 916.374 1013.26C912.94 998.569 910.268 983.687 908.36 968.614C906.452 953.349 905.117 938.562 904.354 924.252C903.781 909.942 903.495 897.254 903.495 886.187C903.495 870.16 903.972 853.56 904.926 836.388C906.071 819.216 907.788 802.425 910.078 786.016C912.367 769.607 915.229 754.057 918.664 739.365C922.289 724.674 926.487 711.794 931.257 700.728C936.218 689.661 941.846 680.885 948.143 674.397C954.439 667.91 961.594 664.666 969.608 664.666C975.904 664.666 981.533 666.193 986.494 669.246C991.645 672.108 995.938 676.878 999.373 683.556C1002.81 690.234 1005.48 698.915 1007.39 709.6C1009.29 720.285 1010.25 733.355 1010.25 748.81C1010.25 767.89 1008.25 787.638 1004.24 808.054C1000.23 828.279 994.794 848.695 987.925 869.301C981.056 889.908 972.947 910.514 963.598 931.121C954.248 951.537 944.231 971.476 933.546 990.937C938.316 1015.17 944.708 1034.25 952.722 1048.18C960.736 1061.92 970.371 1068.78 981.628 1068.78C989.26 1068.78 996.606 1065.83 1003.67 1059.91C1010.73 1053.81 1017.21 1046.65 1023.13 1038.45C1029.04 1030.24 1034.19 1021.94 1038.58 1013.55C1043.16 1004.96 1046.69 998.092 1049.17 992.941C1050.13 991.033 1051.46 989.602 1053.18 988.648C1054.9 987.503 1056.8 986.931 1058.9 986.931C1062.15 986.931 1064.72 988.075 1066.63 990.365C1068.73 992.655 1069.78 995.23 1069.78 998.092C1069.78 999.237 1069.4 1000.76 1068.63 1002.67ZM925.246 887.618C925.246 899.83 925.533 911.564 926.105 922.821C926.677 934.078 927.441 944.859 928.395 955.162C936.408 939.707 944.04 923.298 951.291 905.935C958.541 888.381 964.933 870.732 970.466 852.988C976 835.052 980.388 817.308 983.632 799.754C987.066 782.009 988.783 765.124 988.783 749.096C988.783 726.582 986.971 710.459 983.346 700.728C979.72 690.997 974.855 686.132 968.749 686.132C964.742 686.132 960.831 688.898 957.015 694.431C953.39 699.965 949.955 707.501 946.712 717.041C943.468 726.582 940.511 737.839 937.839 750.813C935.168 763.788 932.879 777.716 930.97 792.599C929.253 807.482 927.822 823.032 926.677 839.25C925.723 855.468 925.246 871.591 925.246 887.618Z" stroke="#6D2128" stroke-width="2" mask="url(#path-5-inside-2)"/>
<path d="M1096.11 857.281C1096.11 864.531 1093.53 870.732 1088.38 875.884C1083.42 880.845 1077.32 883.325 1070.06 883.325C1062.81 883.325 1056.61 880.845 1051.46 875.884C1046.5 870.732 1044.02 864.531 1044.02 857.281C1044.02 853.656 1044.69 850.316 1046.02 847.264C1047.36 844.02 1049.17 841.253 1051.46 838.964C1053.94 836.483 1056.71 834.575 1059.76 833.24C1063.01 831.904 1066.44 831.236 1070.06 831.236C1073.69 831.236 1077.03 831.904 1080.08 833.24C1083.33 834.575 1086.09 836.483 1088.38 838.964C1090.86 841.253 1092.77 844.02 1094.11 847.264C1095.44 850.316 1096.11 853.656 1096.11 857.281ZM1049.74 1025C1049.74 997.52 1051.46 970.14 1054.9 942.855C1055.28 940.184 1056.42 937.894 1058.33 935.986C1060.43 933.888 1063.1 932.838 1066.34 932.838C1069.21 932.838 1071.59 933.983 1073.5 936.273C1075.41 938.371 1076.36 940.852 1076.36 943.714C1076.36 944.859 1076.08 948.293 1075.5 954.017C1075.12 959.741 1074.55 966.61 1073.79 974.624C1073.21 982.447 1072.64 990.842 1072.07 999.81C1071.69 1008.59 1071.5 1016.7 1071.5 1024.14C1071.5 1034.25 1072.45 1042.45 1074.36 1048.75C1076.46 1054.86 1079.03 1059.63 1082.09 1063.06C1085.33 1066.49 1088.67 1068.78 1092.1 1069.93C1095.73 1071.07 1099.16 1071.65 1102.41 1071.65C1107.75 1071.65 1113.28 1069.74 1119.01 1065.92C1124.73 1062.11 1130.55 1056.76 1136.46 1049.9C1142.57 1043.03 1148.68 1034.82 1154.78 1025.28C1160.89 1015.55 1166.9 1004.77 1172.81 992.941C1173.77 991.033 1175.1 989.602 1176.82 988.648C1178.54 987.503 1180.44 986.931 1182.54 986.931C1185.6 986.931 1188.08 988.075 1189.98 990.365C1192.08 992.655 1193.13 995.135 1193.13 997.806C1193.13 999.714 1192.75 1001.34 1191.99 1002.67C1189.7 1007.06 1186.84 1012.4 1183.4 1018.7C1179.97 1025 1176.06 1031.48 1171.67 1038.16C1167.28 1044.84 1162.41 1051.52 1157.07 1058.19C1151.92 1064.68 1146.39 1070.6 1140.47 1075.94C1134.56 1081.09 1128.35 1085.29 1121.87 1088.53C1115.38 1091.78 1108.8 1093.4 1102.12 1093.4C1093.53 1093.4 1086 1091.59 1079.51 1087.96C1073.02 1084.33 1067.49 1079.47 1062.91 1073.36C1058.52 1067.26 1055.18 1060.1 1052.89 1051.9C1050.79 1043.5 1049.74 1034.54 1049.74 1025ZM1080.08 857.281C1080.08 854.61 1079.03 852.32 1076.93 850.412C1075.03 848.313 1072.74 847.264 1070.06 847.264C1067.39 847.264 1065.1 848.313 1063.2 850.412C1061.29 852.32 1060.33 854.61 1060.33 857.281C1060.33 859.952 1061.29 862.242 1063.2 864.15C1065.1 866.058 1067.39 867.012 1070.06 867.012C1072.74 867.012 1075.03 866.058 1076.93 864.15C1079.03 862.242 1080.08 859.952 1080.08 857.281Z" stroke="#6D2128" stroke-width="2" mask="url(#path-5-inside-2)"/>
</svg>
